<?xml version="1.0" standalone="no"?>
<!DOCTYPE svg PUBLIC "-//W3C//DTD SVG 20010904//EN"
 "http://www.w3.org/TR/2001/REC-SVG-20010904/DTD/svg10.dtd">
<svg version="1.0" xmlns="http://www.w3.org/2000/svg"
 width="640.000000pt" height="360.000000pt" viewBox="0 0 640.000000 360.000000"
 preserveAspectRatio="xMidYMid meet">

<g transform="translate(0.000000,360.000000) scale(0.100000,-0.100000)"
fill="#000000" stroke="none">
<path d="M1947 3054 c-4 -4 -7 -17 -7 -28 1 -19 1 -20 11 -3 11 19 8 43 -4 31z"/>
<path d="M1967 3019 c6 -6 9 -19 6 -28 -4 -12 -3 -13 6 -5 13 12 5 44 -12 44
-8 0 -8 -3 0 -11z"/>
<path d="M930 2971 c0 -5 5 -13 10 -16 6 -3 10 -2 10 4 0 5 -4 13 -10 16 -5 3
-10 2 -10 -4z"/>
<path d="M880 2955 c7 -8 22 -15 34 -15 20 1 20 2 -4 15 -33 19 -46 19 -30 0z"/>
<path d="M966 2951 c-3 -5 1 -11 9 -15 9 -3 15 0 15 9 0 16 -16 20 -24 6z"/>
<path d="M1044 2925 c21 -16 32 -13 21 4 -3 6 -14 11 -23 11 -15 -1 -15 -2 2
-15z"/>
<path d="M2048 2863 c5 -76 10 -83 11 -15 0 34 -2 62 -7 62 -4 0 -6 -21 -4
-47z"/>
<path d="M1651 2854 c0 -11 3 -14 6 -6 3 7 2 16 -1 19 -3 4 -6 -2 -5 -13z"/>
<path d="M2210 2820 c0 -22 3 -40 8 -40 4 0 6 18 4 40 -2 22 -6 40 -8 40 -2 0
-4 -18 -4 -40z"/>
<path d="M1616 2815 c7 -17 44 -41 44 -28 0 4 -12 16 -25 26 -20 15 -24 15
-19 2z"/>
<path d="M1848 2803 c-2 -10 -1 -29 3 -43 7 -24 7 -24 8 6 1 16 6 35 13 42 9
9 8 12 -4 12 -9 0 -18 -8 -20 -17z"/>
<path d="M2186 2805 c-3 -9 -6 -24 -5 -33 0 -9 5 -4 10 12 9 32 6 48 -5 21z"/>
<path d="M1000 2791 c8 -6 18 -7 22 -5 4 3 8 0 8 -5 0 -6 5 -11 11 -11 8 0 8
5 -1 15 -7 8 -22 15 -34 15 -17 0 -18 -2 -6 -9z"/>
<path d="M967 2775 c3 -9 8 -13 11 -11 3 3 11 1 19 -5 9 -8 13 -8 13 -1 0 6
-9 16 -19 22 -27 14 -31 13 -24 -5z"/>
<path d="M1363 2765 c0 -8 4 -12 9 -9 5 3 6 10 3 15 -9 13 -12 11 -12 -6z"/>
<path d="M890 2751 c0 -13 29 -35 37 -28 7 8 -15 37 -28 37 -5 0 -9 -4 -9 -9z"/>
<path d="M2027 2739 c-4 -13 -4 -25 -2 -28 3 -2 5 1 5 8 0 7 5 9 10 6 12 -8
13 5 1 23 -6 10 -10 8 -14 -9z"/>
<path d="M1660 2710 c-6 -11 -8 -20 -6 -20 3 0 10 9 16 20 6 11 8 20 6 20 -3
0 -10 -9 -16 -20z"/>
<path d="M2391 2704 c-13 -13 -21 -27 -17 -31 3 -3 6 -2 6 2 0 5 6 0 14 -11
15 -19 15 -19 12 1 -2 11 1 25 6 32 20 25 2 31 -21 7z"/>
<path d="M962 2689 c6 -16 12 -28 14 -26 5 5 -13 57 -20 57 -3 0 0 -14 6 -31z"/>
<path d="M1624 2703 c2 -13 0 -23 -6 -23 -5 0 -7 -4 -4 -9 7 -11 32 -9 43 4 4
4 3 5 -4 2 -7 -4 -16 4 -22 20 -8 21 -10 22 -7 6z"/>
<path d="M880 2672 c0 -7 -4 -11 -9 -8 -13 9 -23 -26 -11 -38 7 -7 10 -4 10 9
0 16 6 13 32 -15 26 -28 33 -32 36 -18 2 10 -10 32 -27 50 -17 18 -31 27 -31
20z"/>
<path d="M2071 2664 c0 -11 3 -14 6 -6 3 7 2 16 -1 19 -3 4 -6 -2 -5 -13z"/>
<path d="M700 2642 c6 -13 14 -21 18 -18 3 4 -2 14 -12 24 -18 16 -18 16 -6
-6z"/>
<path d="M2400 2630 c-8 -5 -12 -12 -9 -15 4 -3 12 1 19 10 14 17 11 19 -10 5z"/>
<path d="M684 2542 c3 -56 24 -83 56 -75 10 3 20 -2 23 -10 4 -11 0 -13 -16
-9 -21 5 -21 5 -4 -12 20 -21 22 -36 4 -36 -7 0 -14 -11 -15 -25 -3 -47 -5
-55 -14 -55 -4 0 -8 -6 -8 -13 0 -7 -9 -20 -20 -30 -12 -10 -18 -22 -15 -27 3
-5 -3 -11 -14 -15 -14 -4 -17 -13 -15 -38 7 -55 14 -67 42 -68 23 -2 24 -2 5
-6 -14 -3 -20 -9 -16 -19 3 -8 1 -14 -4 -14 -5 0 -10 -6 -11 -12 -5 -45 -16
-78 -24 -78 -5 0 -6 -5 -2 -12 5 -7 2 -9 -9 -5 -11 4 -14 2 -10 -9 3 -7 10
-14 16 -14 6 0 3 -8 -6 -17 -10 -10 -25 -18 -34 -18 -20 0 -48 -48 -32 -54 5
-1 2 -9 -8 -17 -13 -10 -14 -13 -4 -14 11 0 9 -5 -5 -22 -17 -19 -17 -21 -1
-15 9 4 17 2 17 -3 0 -6 12 -10 28 -11 l27 -1 -28 -10 c-15 -5 -25 -14 -21
-19 3 -5 -8 -12 -24 -15 -26 -5 -30 -10 -26 -33 3 -14 9 -30 14 -35 10 -10
301 84 316 103 6 8 16 11 23 7 17 -11 161 16 161 30 0 16 24 24 41 13 20 -12
29 -11 29 4 0 7 -12 18 -27 23 -27 10 -27 11 12 12 40 1 68 -8 66 -22 -3 -22
3 -26 42 -27 39 -1 38 -2 -22 -14 -36 -7 -74 -10 -85 -8 -19 3 -19 3 2 -6 37
-17 25 -31 -25 -30 -46 2 -47 2 -13 8 l35 7 -45 8 c-35 6 -71 1 -165 -24 -99
-25 -333 -97 -343 -105 -1 -1 0 -10 4 -19 5 -13 13 -16 33 -11 l26 6 -22 -16
c-24 -17 -31 -49 -13 -60 5 -3 7 -12 3 -21 -3 -8 -2 -14 3 -13 20 3 23 -2 14
-26 -8 -21 -7 -25 10 -25 20 0 20 -1 4 -27 -14 -24 -14 -25 0 -9 8 11 27 21
42 22 32 4 44 14 18 15 -10 1 -23 2 -29 4 -5 1 -16 3 -23 3 -7 1 -10 7 -6 13
3 6 15 9 25 6 11 -3 17 -1 14 3 -8 12 35 39 51 33 19 -7 246 68 260 86 6 8 15
11 20 8 6 -3 16 -2 24 4 13 7 12 9 -2 9 -10 0 -18 4 -18 10 0 5 7 7 15 4 8 -4
15 -2 15 3 0 4 19 8 43 7 26 -1 31 0 12 3 -38 6 -58 23 -26 23 16 0 21 4 18
15 -5 11 0 13 21 9 15 -3 36 -7 47 -9 11 -2 22 -5 25 -6 12 -5 60 -4 60 1 0 4
14 7 30 7 40 0 38 -4 -12 -17 -23 -7 -36 -15 -30 -19 14 -8 142 10 136 20 -2
4 4 10 13 12 10 3 2 6 -17 7 -23 2 -28 4 -15 7 11 3 29 12 40 19 17 12 17 14
2 14 -9 0 -17 4 -17 9 0 5 10 7 23 5 12 -2 4 3 -18 11 -22 9 -51 24 -65 35
-20 17 -14 15 32 -6 32 -14 82 -28 112 -31 42 -4 53 -9 49 -20 -5 -12 2 -13
33 -8 83 13 134 27 134 37 0 5 4 7 9 4 4 -3 19 4 32 15 13 12 50 41 82 66 53
41 60 44 75 30 9 -8 41 -25 70 -37 29 -13 57 -31 63 -41 14 -28 29 -23 29 9 0
44 -15 57 -62 57 l-43 0 3 49 c2 27 10 59 18 72 9 12 17 40 18 61 2 21 2 32
-1 25 -3 -6 -9 -10 -13 -7 -5 3 -6 13 -3 22 4 11 3 14 -5 9 -7 -4 -12 -2 -12
3 0 6 5 11 11 11 5 0 8 4 4 9 -3 5 -1 12 5 16 6 4 7 11 4 17 -4 6 -10 5 -15
-3 -5 -8 -9 -9 -9 -3 0 6 7 17 16 25 8 7 27 36 41 63 37 73 70 109 112 123 20
6 29 12 21 12 -13 1 -13 2 0 11 12 8 10 10 -8 10 -13 0 -21 -4 -18 -9 4 -5 -7
-12 -22 -16 -45 -9 -98 -72 -113 -132 -13 -52 -36 -76 -27 -28 3 13 1 22 -3
19 -5 -3 -9 0 -9 7 0 6 -16 38 -36 70 -19 32 -34 60 -32 63 6 9 -116 98 -159
117 -23 10 -70 23 -105 30 -74 14 -106 28 -68 29 14 1 19 4 12 7 -8 3 -24 1
-35 -5 -12 -6 -39 -13 -59 -17 -90 -14 -232 -112 -276 -190 -9 -17 -13 -18
-24 -6 -8 8 -8 11 -1 7 13 -7 28 28 18 44 -9 14 -26 12 -23 -2 2 -7 -8 -14
-22 -16 -14 -2 -32 -10 -41 -18 -14 -13 -17 -13 -22 0 -4 10 -1 13 7 10 8 -3
17 -1 21 5 3 6 16 11 28 11 16 0 23 6 24 22 1 11 7 25 14 29 8 5 6 11 -10 20
-30 19 -26 25 15 25 20 0 39 6 44 15 6 9 28 14 67 15 32 0 67 4 78 9 71 29 91
35 117 35 17 0 27 4 23 10 -3 6 -26 10 -51 10 -28 0 -43 4 -39 10 8 13 -5 13
-25 0 -8 -5 -10 -10 -5 -11 15 -2 -67 -20 -92 -21 -13 0 -21 -4 -18 -8 3 -4
-2 -11 -11 -14 -23 -9 -31 -7 -14 4 23 15 7 21 -73 27 -50 4 -76 2 -81 -6 -4
-6 -3 -11 2 -11 6 0 9 -11 8 -24 0 -14 -6 -22 -13 -19 -7 3 -13 0 -13 -6 0 -6
-8 -11 -17 -11 -14 0 -15 -2 -5 -9 11 -6 7 -13 -14 -30 -33 -26 -43 -26 -50
-3 -3 9 -10 25 -15 34 -5 10 -9 27 -9 39 0 23 -17 59 -28 59 -4 0 -8 -9 -9
-20 -2 -23 -15 -38 -56 -65 -26 -17 -29 -17 -45 -1 -14 14 -15 18 -3 25 10 7
11 13 2 30 -7 11 -9 21 -5 21 3 0 1 7 -6 15 -6 8 -25 13 -41 12 -28 -2 -29 -3
-25 -55z m463 -8 c-3 -3 -12 -4 -19 -1 -8 3 -5 6 6 6 11 1 17 -2 13 -5z m-212
-194 c3 -5 1 -10 -4 -10 -6 0 -11 5 -11 10 0 6 2 10 4 10 3 0 8 -4 11 -10z
m151 -9 c-3 -5 -15 -7 -26 -4 -28 7 -25 13 6 13 14 0 23 -4 20 -9z m-77 -50
c21 -14 -4 -22 -33 -11 -14 5 -26 12 -26 15 0 8 44 5 59 -4z m1 -51 c0 -13
-20 -13 -40 0 -12 8 -9 10 13 10 15 0 27 -4 27 -10z m20 -101 c13 -7 12 -8 -2
-9 -10 0 -18 -5 -18 -11 0 -6 7 -9 15 -6 15 7 28 -7 32 -36 3 -15 0 -16 -20
-6 -12 7 -23 12 -24 11 -2 -1 -26 -2 -55 -2 -38 0 -49 3 -41 11 12 12 42 14
88 7 17 -3 22 -3 13 -1 -10 2 -18 9 -18 14 0 6 -4 8 -9 5 -5 -3 -24 0 -42 8
l-34 15 25 9 c25 10 62 6 90 -9z m847 -71 c-3 -8 -6 -5 -6 6 -1 11 2 17 5 13
3 -3 4 -12 1 -19z m-934 -55 c-7 -2 -21 -2 -30 0 -10 3 -4 5 12 5 17 0 24 -2
18 -5z m288 -160 c13 -16 12 -17 -3 -4 -10 7 -18 15 -18 17 0 8 8 3 21 -13z
m-354 -41 c8 -5 -2 -8 -24 -9 -25 -1 -32 2 -22 8 17 11 30 11 46 1z m286 -33
c-8 -8 -13 -7 -18 2 -5 8 -4 10 3 5 7 -4 12 -2 12 5 0 7 3 9 7 6 4 -4 2 -12
-4 -18z m127 -24 c0 -6 -73 -25 -78 -20 -2 2 11 8 29 14 41 11 49 12 49 6z
m-95 -25 c-3 -5 -12 -10 -18 -10 -7 0 -6 4 3 10 19 12 23 12 15 0z m-520 -170
c-3 -5 -13 -10 -21 -10 -8 0 -12 5 -9 10 3 6 13 10 21 10 8 0 12 -4 9 -10z
m-51 -9 c3 -5 -1 -11 -9 -15 -9 -3 -15 0 -15 9 0 16 16 20 24 6z"/>
<path d="M1798 2535 c3 -11 7 -14 10 -7 3 9 8 10 16 3 8 -7 12 -5 12 7 0 11
-8 17 -22 17 -16 0 -20 -5 -16 -20z"/>
<path d="M1885 2519 c-4 -6 -5 -12 -2 -15 2 -3 7 2 10 11 7 17 1 20 -8 4z"/>
<path d="M1820 2503 c0 -4 5 -15 10 -23 8 -13 10 -13 10 2 0 9 -4 20 -10 23
-5 3 -10 3 -10 -2z"/>
<path d="M2535 2480 c-13 -5 -14 -9 -5 -9 8 0 24 4 35 9 13 5 14 9 5 9 -8 0
-24 -4 -35 -9z"/>
<path d="M2450 2469 c-31 -13 -109 -71 -110 -83 0 -4 16 4 35 19 20 14 55 37
78 51 43 24 42 31 -3 13z"/>
<path d="M2560 2461 c-37 -4 -87 -18 -113 -30 -53 -26 -134 -99 -167 -152 -15
-23 -19 -27 -15 -11 3 12 2 22 -4 22 -5 0 -17 3 -27 7 -15 5 -16 0 -12 -48 3
-30 9 -62 13 -73 6 -14 5 -18 -6 -14 -8 3 -15 20 -16 39 -4 69 -55 169 -85
169 -5 0 -2 -8 8 -17 39 -40 59 -133 28 -133 -12 0 -14 3 -6 13 8 9 3 12 -19
13 -29 1 -38 -9 -19 -21 6 -4 8 -11 5 -16 -4 -5 -2 -9 3 -9 8 0 65 -103 67
-120 1 -10 37 -105 46 -122 5 -9 6 -30 3 -46 -4 -22 -2 -31 11 -35 11 -5 14
-3 10 6 -4 6 1 3 10 -8 76 -94 126 -139 185 -168 60 -30 72 -32 170 -32 100 0
109 2 175 35 39 19 75 33 80 31 6 -1 7 0 4 3 -3 3 15 28 41 55 67 72 104 145
105 208 0 36 4 53 13 53 18 0 15 40 -4 47 -8 3 -13 12 -10 20 7 16 -56 157
-81 186 -9 9 -13 17 -9 17 4 0 2 9 -4 21 -7 11 -14 18 -17 15 -3 -2 -27 10
-54 29 -86 59 -184 80 -309 66z m-309 -248 c-12 -20 -14 -14 -5 12 4 9 9 14
11 11 3 -2 0 -13 -6 -23z m-36 -71 c-3 -3 -11 0 -18 7 -9 10 -8 11 6 5 10 -3
15 -9 12 -12z m428 -459 c-7 -2 -21 -2 -30 0 -10 3 -4 5 12 5 17 0 24 -2 18
-5z"/>
<path d="M2012 2306 c-20 -26 -21 -31 -7 -46 16 -17 45 -23 45 -9 0 5 8 6 18
3 13 -5 14 -4 3 4 -8 6 -11 17 -8 26 4 10 1 16 -8 16 -7 0 -15 8 -17 17 -3 14
-7 12 -26 -11z"/>
<path d="M3040 2165 c0 -22 16 -32 47 -31 18 0 31 6 29 11 -1 6 -16 10 -32 9
-16 0 -32 4 -36 10 -5 7 -8 7 -8 1z"/>
<path d="M3080 2104 c0 -22 35 -40 46 -23 3 5 -2 9 -10 9 -8 0 -20 8 -25 18
-9 15 -10 15 -11 -4z"/>
<path d="M1393 1753 c9 -2 25 -2 35 0 9 3 1 5 -18 5 -19 0 -27 -2 -17 -5z"/>
<path d="M1578 1743 c7 -3 16 -2 19 1 4 3 -2 6 -13 5 -11 0 -14 -3 -6 -6z"/>
<path d="M1250 1654 c-19 -8 -62 -17 -95 -20 -33 -3 -67 -8 -75 -11 -8 -3 -19
-7 -25 -7 -52 -7 -94 -19 -90 -27 4 -5 -1 -6 -9 -3 -8 3 -51 -4 -96 -17 l-82
-22 38 -13 c21 -7 41 -11 45 -8 5 3 17 -1 27 -7 15 -9 28 -7 65 9 26 12 47 27
47 35 0 13 63 32 99 30 8 -1 26 3 40 9 26 11 37 14 81 21 36 6 110 46 85 46
-11 0 -36 -7 -55 -15z m-260 -94 c0 -5 -4 -10 -10 -10 -5 0 -10 5 -10 10 0 6
5 10 10 10 6 0 10 -4 10 -10z"/>
<path d="M2037 1641 c-4 -17 -3 -21 5 -13 5 5 8 16 6 23 -3 8 -7 3 -11 -10z"/>
<path d="M1280 1620 c-30 -11 -56 -20 -58 -20 -2 0 -1 -4 3 -9 3 -6 -3 -14
-12 -20 -10 -6 -13 -11 -8 -11 6 0 25 9 43 20 35 21 90 29 62 9 -12 -9 -12
-10 3 -5 10 3 23 6 28 6 6 0 8 4 5 9 -3 5 1 11 9 15 21 8 19 26 -2 25 -10 0
-43 -9 -73 -19z"/>
<path d="M1369 1603 c-13 -16 -12 -17 4 -4 9 7 17 15 17 17 0 8 -8 3 -21 -13z"/>
<path d="M2030 1596 c0 -8 5 -18 10 -21 6 -3 10 1 10 9 0 8 -4 18 -10 21 -5 3
-10 -1 -10 -9z"/>
<path d="M1130 1570 c-8 -5 -62 -23 -119 -40 -73 -22 -100 -34 -90 -41 8 -5
10 -9 4 -10 -21 -1 31 -18 60 -18 23 -1 49 14 104 59 66 54 83 74 41 50z"/>
<path d="M1395 1570 c-3 -5 -3 -10 2 -11 4 -1 -3 -4 -17 -9 -22 -6 -23 -8 -7
-15 26 -11 70 14 56 32 -14 16 -26 17 -34 3z"/>
<path d="M1100 1510 c-33 -28 -33 -29 -7 -18 15 6 27 15 27 20 0 4 7 8 15 8 8
0 15 5 15 10 0 17 -14 11 -50 -20z"/>
<path d="M720 1520 c-8 -5 -10 -10 -5 -10 6 0 17 5 25 10 8 5 11 10 5 10 -5 0
-17 -5 -25 -10z"/>
<path d="M1450 1520 c-8 -5 -12 -11 -9 -14 2 -3 11 -1 19 4 8 5 12 11 9 14 -2
3 -11 1 -19 -4z"/>
<path d="M1190 1506 c0 -5 -3 -7 -6 -3 -6 5 -119 -33 -145 -49 -19 -11 26 -33
69 -34 29 0 44 5 48 15 4 8 10 15 15 15 16 0 68 43 63 51 -3 5 2 6 10 3 9 -3
16 -1 16 5 0 7 -14 11 -35 9 -19 -1 -35 -6 -35 -12z"/>
<path d="M1276 1491 c-4 -5 3 -7 14 -4 23 6 26 13 6 13 -8 0 -17 -4 -20 -9z"/>
<path d="M676 1457 c-13 -13 -28 -21 -34 -19 -7 2 -12 -1 -12 -7 0 -6 7 -11
16 -11 12 0 11 -5 -7 -20 l-24 -21 33 18 c18 10 57 30 85 45 40 20 46 27 29
27 -13 1 -33 -4 -44 -10 -18 -10 -20 -9 -15 5 9 22 0 20 -27 -7z"/>
<path d="M850 1455 c-14 -8 -19 -14 -10 -14 8 0 26 6 40 14 14 8 19 14 10 14
-8 0 -26 -6 -40 -14z"/>
<path d="M597 1416 c-9 -7 -17 -16 -17 -20 0 -11 27 -6 39 8 16 19 0 27 -22
12z"/>
<path d="M1133 1394 l-26 -21 47 -1 c58 0 128 25 105 39 -28 15 -98 6 -126
-17z m114 10 c-3 -3 -12 -4 -19 -1 -8 3 -5 6 6 6 11 1 17 -2 13 -5z"/>
<path d="M1095 1400 c-3 -5 -1 -10 4 -10 6 0 11 5 11 10 0 6 -2 10 -4 10 -3 0
-8 -4 -11 -10z"/>
<path d="M695 1380 c-3 -5 -1 -10 4 -10 6 0 11 5 11 10 0 6 -2 10 -4 10 -3 0
-8 -4 -11 -10z"/>
<path d="M1251 1369 c-12 -12 -20 -24 -16 -27 3 -3 17 6 31 21 29 32 18 36
-15 6z"/>
<path d="M639 1373 c-1 -5 -1 -12 0 -16 1 -5 -3 -6 -9 -2 -5 3 -18 1 -29 -5
-16 -8 -18 -15 -11 -39 4 -16 6 -32 3 -35 -8 -8 -21 -97 -14 -94 25 12 119 94
110 97 -6 2 6 14 26 28 20 14 34 27 31 31 -4 3 -20 -4 -36 -16 -16 -12 -35
-22 -42 -22 -7 1 -3 6 8 13 15 9 19 17 14 31 -4 14 -9 16 -14 8 -4 -7 -13 -12
-19 -12 -7 0 -6 4 3 10 13 8 12 10 -3 10 -10 0 -15 5 -12 10 3 6 4 10 1 10 -3
0 -7 -3 -7 -7z m21 -103 c0 -5 -5 -10 -11 -10 -5 0 -7 5 -4 10 3 6 8 10 11 10
2 0 4 -4 4 -10z"/>
<path d="M1285 1352 c-23 -23 58 -32 88 -9 15 10 10 12 -33 13 -27 0 -52 -1
-55 -4z"/>
<path d="M1350 1310 c-8 -5 -12 -11 -9 -14 2 -3 11 -1 19 4 8 5 12 11 9 14 -2
3 -11 1 -19 -4z"/>
<path d="M1515 1264 l-30 -25 33 17 c17 10 32 22 32 26 0 12 -2 11 -35 -18z"/>
<path d="M1449 1261 c-13 -11 -19 -20 -14 -20 14 0 50 28 43 34 -3 3 -16 -3
-29 -14z"/>
<path d="M705 1230 c-3 -5 -23 -14 -43 -20 -41 -11 -132 -84 -132 -105 0 -7 8
-16 18 -18 12 -3 11 -5 -6 -6 -13 0 -20 -5 -17 -11 8 -13 81 -13 106 0 11 6
25 8 31 4 7 -5 4 -10 -10 -15 -33 -12 -28 -39 7 -39 29 0 95 45 87 59 -3 4 9
13 25 20 16 7 29 17 29 22 0 6 -7 6 -18 0 -11 -6 -24 -6 -33 0 -10 6 -10 9 -1
9 6 0 12 4 12 9 0 5 -6 9 -12 8 -32 -1 -49 4 -44 12 4 5 -3 7 -14 4 -11 -3
-20 -9 -20 -14 0 -5 -8 -9 -17 -9 -14 0 -15 2 -4 9 9 6 10 11 2 15 -17 11 -3
26 24 26 30 0 55 10 55 22 0 5 -5 6 -12 2 -8 -5 -9 -2 -5 9 7 18 2 23 -8 7z
m15 -105 c-7 -8 -17 -15 -22 -15 -6 0 -5 7 2 15 7 8 17 15 22 15 6 0 5 -7 -2
-15z"/>
<path d="M750 1220 c-8 -5 -12 -11 -9 -14 2 -3 11 -1 19 4 8 5 12 11 9 14 -2
3 -11 1 -19 -4z"/>
<path d="M730 1180 c-9 -6 -10 -10 -3 -10 6 0 15 5 18 10 8 12 4 12 -15 0z"/>
<path d="M882 1053 c-6 -3 -10 -9 -6 -14 3 -5 -4 -9 -15 -9 -14 0 -21 -6 -21
-19 0 -11 -12 -30 -27 -42 -17 -13 -21 -20 -10 -16 10 4 23 7 28 7 6 0 8 4 5
9 -6 8 21 26 36 23 3 -1 12 6 20 16 12 15 11 16 -4 3 -23 -17 -23 -3 -1 21 17
19 16 28 -5 21z"/>
<path d="M740 1025 c-25 -14 -25 -14 -2 -16 12 -1 27 -2 34 -3 6 -1 13 5 16
12 2 8 -2 10 -14 5 -12 -4 -15 -3 -10 5 9 15 7 15 -24 -3z"/>
<path d="M898 978 c-34 -12 -38 -33 -5 -22 12 4 27 7 34 7 6 0 9 6 6 14 -3 7
-6 13 -7 12 0 0 -13 -5 -28 -11z"/>
<path d="M710 930 c-9 -6 -10 -10 -3 -10 6 0 15 5 18 10 8 12 4 12 -15 0z"/>
<path d="M766 879 c-14 -11 -24 -24 -21 -28 8 -14 -21 -44 -46 -48 -13 -2 -32
-12 -44 -22 -19 -18 -46 -26 -129 -38 -27 -4 -37 -2 -32 6 14 22 -39 11 -69
-15 -16 -14 -43 -37 -59 -50 -34 -29 -30 -39 10 -24 32 13 86 -6 62 -22 -9 -5
-5 -8 10 -8 14 0 21 -4 16 -11 -11 -18 38 -7 71 16 54 38 60 40 33 7 -28 -33
-28 -56 -2 -66 9 -3 12 -10 9 -16 -3 -5 -2 -10 3 -10 6 0 8 -9 5 -20 -4 -16 0
-20 21 -20 29 0 80 22 109 48 9 8 20 13 23 9 3 -3 -17 -18 -45 -34 -28 -15
-53 -34 -56 -42 -5 -13 1 -13 50 3 11 4 4 -2 -15 -13 -24 -14 -29 -20 -17 -21
13 0 17 -5 12 -19 -9 -28 15 -40 73 -37 41 2 49 0 34 -8 -11 -6 -17 -16 -15
-23 2 -6 -1 -15 -8 -19 -7 -4 -9 -3 -6 3 8 12 -28 24 -49 16 -10 -3 -4 -12 19
-27 26 -18 38 -20 62 -13 65 21 77 28 72 41 -4 9 5 19 24 26 16 7 33 19 37 27
5 8 16 15 25 17 9 1 28 15 42 32 25 29 33 50 15 39 -5 -3 -10 -2 -10 2 0 8
-10 11 -57 14 -10 1 -27 -2 -38 -6 -14 -5 -10 1 10 19 26 22 27 25 10 25 -29
1 -71 -23 -67 -38 2 -11 -36 -12 -85 -2 -2 1 -3 6 -3 12 0 5 6 7 13 3 9 -6 9
-4 -1 8 -12 15 -7 52 7 44 3 -2 7 9 8 25 1 17 -2 27 -7 24 -6 -3 -17 -2 -25 2
-12 7 -5 14 31 31 36 18 43 26 35 36 -6 7 -7 17 -3 22 4 4 -2 2 -12 -6 -18
-14 -19 -14 -8 7 10 18 15 20 36 10 13 -7 22 -16 18 -22 -3 -5 1 -4 10 3 8 7
23 9 32 6 11 -4 27 2 44 17 14 13 21 17 14 7 -16 -20 2 -35 22 -19 9 7 16 7
23 0 8 -8 17 -5 32 10 l21 21 -2 -25 c-2 -16 -7 -24 -15 -21 -7 3 -25 1 -39
-4 -14 -6 -31 -7 -37 -3 -21 13 -37 11 -37 -4 0 -13 3 -13 15 -3 14 11 19 7
16 -12 0 -5 7 -8 17 -9 9 0 4 -5 -13 -11 -36 -13 -55 -27 -55 -41 0 -8 3 -8
11 0 6 6 18 9 27 6 10 -4 13 -2 8 5 -5 8 -2 10 8 6 9 -3 16 -2 16 3 0 5 17 19
38 31 31 17 41 19 53 9 11 -10 12 -9 2 2 -9 10 -5 19 16 40 15 14 17 18 6 9
-12 -10 -24 -18 -28 -18 -11 0 6 33 28 55 11 11 13 14 4 7 -10 -8 -23 -14 -31
-16 -7 -1 -19 -5 -25 -9 -8 -5 -13 -3 -13 3 0 6 -4 9 -9 5 -6 -3 -8 4 -6 17 4
23 4 23 -16 -2 -18 -23 -19 -23 -9 -2 6 12 9 22 8 23 -26 6 -57 6 -53 -1 7
-11 -19 -20 -56 -20 -22 0 -28 4 -22 13 11 18 13 37 2 37 -4 0 -24 -13 -42
-30 -19 -16 -37 -30 -41 -30 -5 0 65 65 83 77 2 2 1 6 -2 10 -4 3 -23 1 -43
-5 -35 -10 -36 -10 -18 9 25 27 12 33 -20 8z m153 -109 c-6 -5 -18 -6 -26 -3
-19 8 -16 11 13 11 17 0 22 -3 13 -8z m-278 -44 c-13 -14 -39 -26 -59 -29 -20
-3 -61 -10 -90 -17 -32 -7 -58 -7 -68 -2 -13 7 -8 13 28 31 24 11 58 21 74 22
16 0 38 4 49 9 11 5 35 9 54 9 l34 1 -22 -24z m104 -36 c-3 -5 -13 -10 -21
-10 -8 0 -14 5 -14 10 0 6 9 10 21 10 11 0 17 -4 14 -10z m12 -176 c-3 -3 -12
-4 -19 -1 -8 3 -5 6 6 6 11 1 17 -2 13 -5z m158 -4 c-6 -10 7 -14 33 -11 8 1
4 -7 -8 -19 -11 -11 -26 -18 -32 -14 -7 4 -8 3 -4 -4 5 -8 0 -12 -14 -12 -11
0 -32 -7 -46 -16 -13 -9 -27 -14 -30 -11 -3 3 12 15 34 26 55 28 60 40 12 27
-22 -5 -40 -14 -40 -18 0 -4 -9 -12 -20 -18 -18 -10 -19 -9 -8 14 6 14 19 28
30 32 10 3 15 10 12 16 -4 6 -3 9 2 5 7 -4 53 2 82 12 2 1 0 -3 -3 -9z"/>
<path d="M710 870 l-25 -19 24 4 c30 6 64 35 41 35 -8 0 -26 -9 -40 -20z"/>
<path d="M945 881 c-11 -5 -23 -7 -27 -4 -7 4 -12 -11 -10 -28 1 -4 -7 -5 -17
-2 -24 6 -35 -22 -15 -38 12 -10 17 -10 27 0 9 10 8 11 -7 5 -13 -5 -17 -4
-12 4 4 7 13 12 20 12 7 0 25 14 41 30 31 32 31 33 0 21z"/>
<path d="M719 833 c-13 -16 -12 -17 4 -4 9 7 17 15 17 17 0 8 -8 3 -21 -13z"/>
<path d="M410 784 c-6 -14 -22 -42 -37 -62 -21 -30 -17 -28 26 15 29 29 50 57
46 63 -11 17 -25 11 -35 -16z"/>
<path d="M1015 799 c-11 -17 1 -21 15 -4 8 9 8 15 2 15 -6 0 -14 -5 -17 -11z"/>
<path d="M1105 704 c-19 -19 -19 -25 0 -18 8 4 15 10 15 15 0 5 5 9 11 9 6 0
8 -7 5 -16 -4 -10 -2 -13 6 -8 8 5 9 1 4 -12 -4 -10 -3 -15 1 -10 4 4 8 18 8
30 1 26 -28 32 -50 10z"/>
<path d="M1037 658 c-15 -15 -28 -25 -28 -23 -1 3 -2 9 -3 14 0 5 -4 12 -7 15
-5 5 -5 -39 0 -52 1 -1 15 4 31 13 34 17 38 11 13 -17 -16 -18 -16 -18 3 -12
22 8 74 54 74 66 0 4 -11 3 -24 -2 -20 -7 -25 -6 -28 8 -3 14 -8 13 -31 -10z"/>
<path d="M3179 639 c-11 -11 -18 -23 -16 -26 9 -8 48 8 42 17 -3 5 3 13 12 19
17 10 17 10 1 11 -10 0 -27 -9 -39 -21z"/>
<path d="M1148 633 c-31 -36 -31 -46 0 -25 17 13 34 27 37 32 11 17 -21 11
-37 -7z"/>
<path d="M815 630 c-18 -8 -18 -9 -2 -9 10 -1 15 -6 12 -11 -4 -6 5 -5 20 2
18 8 22 14 13 20 -15 9 -17 9 -43 -2z"/>
<path d="M1189 627 c-63 -49 -72 -58 -63 -67 5 -5 24 9 47 36 40 46 43 52 16
31z"/>
<path d="M339 603 c-6 -36 1 -42 21 -18 8 9 8 15 2 15 -6 0 -12 8 -14 18 -3
10 -6 4 -9 -15z"/>
<path d="M884 605 c-18 -14 -18 -14 3 -15 23 0 39 15 25 24 -5 3 -18 -1 -28
-9z"/>
<path d="M1099 603 c-13 -16 -12 -17 4 -4 16 13 21 21 13 21 -2 0 -10 -8 -17
-17z"/>
<path d="M824 585 c-10 -8 -14 -14 -9 -14 6 0 19 6 29 14 11 8 15 15 10 15 -6
0 -19 -7 -30 -15z"/>
<path d="M965 580 c-16 -11 -25 -20 -20 -20 10 0 64 39 55 40 -3 0 -18 -9 -35
-20z"/>
<path d="M3121 593 c-13 -3 -32 -13 -43 -23 -18 -17 -18 -17 18 -14 21 1 44
11 55 23 20 21 17 23 -30 14z"/>
<path d="M336 545 c4 -8 10 -15 15 -15 4 0 6 7 3 15 -4 8 -10 15 -15 15 -4 0
-6 -7 -3 -15z"/>
<path d="M3077 530 c-50 -9 -59 -20 -16 -20 19 0 43 7 53 15 21 16 20 16 -37
5z"/>
<path d="M1034 503 c-22 -8 -41 -20 -41 -28 0 -18 30 -19 59 -4 11 6 32 13 46
15 l27 5 -30 -26 c-22 -20 -38 -25 -60 -22 -20 3 -34 -1 -42 -12 -12 -15 -13
-15 -7 0 3 10 -1 20 -8 25 -7 4 -10 4 -6 -1 8 -9 -15 -35 -31 -35 -6 0 -11 -4
-11 -9 0 -6 10 -8 23 -5 12 2 38 7 57 11 19 4 39 6 43 5 16 -4 66 29 86 57 23
32 28 52 9 33 -14 -14 -42 -16 -33 -2 9 14 -31 10 -81 -7z"/>
<path d="M350 498 c0 -7 7 -21 15 -31 7 -11 11 -25 8 -33 -3 -9 2 -14 13 -14
16 0 15 -3 -6 -20 -24 -19 -24 -20 -3 -20 30 0 54 -11 47 -21 -8 -13 20 -11
34 3 17 17 15 28 -5 28 -13 0 -14 3 -5 12 23 23 13 38 -23 38 -30 0 -35 4 -43
32 -8 32 -32 52 -32 26z"/>
<path d="M1180 499 c0 -5 5 -7 10 -4 6 3 10 8 10 11 0 2 -4 4 -10 4 -5 0 -10
-5 -10 -11z"/>
<path d="M1146 464 c-5 -14 -4 -15 9 -4 17 14 19 20 6 20 -5 0 -12 -7 -15 -16z"/>
<path d="M944 385 c-19 -14 -19 -14 1 -14 11 0 31 6 45 14 l25 14 -26 1 c-14
0 -34 -7 -45 -15z"/>
<path d="M897 358 c-9 -5 -17 -7 -17 -3 0 3 -9 -4 -20 -15 -11 -11 -27 -17
-37 -14 -17 5 -17 5 0 -6 9 -6 22 -8 29 -4 6 4 8 3 4 -4 -14 -23 11 -20 28 4
11 13 24 24 30 24 6 0 4 -5 -4 -10 -8 -5 -10 -10 -5 -10 6 1 18 6 27 13 15 12
15 14 -1 24 -11 7 -23 8 -34 1z"/>
<path d="M420 330 c-10 -6 -11 -10 -3 -10 18 0 46 -57 32 -65 -7 -5 -6 -11 2
-21 6 -8 8 -14 3 -14 -4 0 -3 -5 3 -11 6 -6 25 -8 48 -3 22 4 32 10 25 14 -8
5 -3 11 16 18 29 10 29 10 4 12 -24 1 -24 1 -6 15 19 14 18 15 -12 15 -25 0
-32 4 -32 20 0 11 -6 19 -12 17 -7 -1 -12 4 -10 11 2 14 -36 16 -58 2z"/>
<path d="M1001 331 c-8 -5 -9 -11 -3 -15 5 -3 12 1 16 9 6 17 6 18 -13 6z"/>
<path d="M1070 280 c-8 -5 -12 -11 -9 -14 2 -3 11 -1 19 4 8 5 12 11 9 14 -2
3 -11 1 -19 -4z"/>
<path d="M266 264 c-9 -23 -3 -26 28 -14 15 5 24 14 21 20 -10 16 -42 12 -49
-6z"/>
<path d="M944 225 c-17 -13 -16 -14 14 -4 33 11 41 19 19 19 -7 0 -22 -7 -33
-15z"/>
<path d="M269 217 c5 -5 30 -7 57 -5 l49 3 -57 5 c-31 3 -53 1 -49 -3z"/>
<path d="M505 193 c-31 -10 -43 -18 -32 -20 9 -3 15 -8 12 -13 -10 -16 27 -40
63 -41 l37 -2 -40 -7 c-27 -5 -32 -8 -15 -9 20 -1 22 -3 10 -12 -12 -8 -10
-10 10 -8 14 1 34 0 45 -1 19 -1 18 -2 -2 -10 -24 -10 -32 -30 -12 -30 6 0 9
-7 5 -15 -10 -28 59 -22 91 7 27 25 21 38 -17 38 -32 0 -48 15 -25 24 22 8 18
24 -7 28 -20 4 -18 6 12 15 31 10 32 11 10 14 -14 1 -54 1 -90 1 -48 -1 -58 1
-40 7 l25 9 -25 2 -25 2 25 7 c14 4 39 4 55 0 26 -7 28 -7 13 5 -10 7 -15 16
-11 19 10 11 -19 7 -72 -10z"/>
<path d="M224 155 c-9 -25 -14 -48 -11 -52 4 -3 42 -7 84 -9 61 -2 67 -1 28 4
-49 7 -49 7 -17 14 19 5 31 12 27 18 -3 5 3 10 14 10 11 0 22 4 25 9 8 13 -40
42 -57 35 -8 -3 -18 -1 -22 5 -3 6 -17 11 -30 11 -19 0 -27 -9 -41 -45z"/>
<path d="M200 70 c0 -12 87 -12 115 0 14 6 -1 9 -47 9 -39 1 -68 -3 -68 -9z"/>
<path d="M177 24 l-5 -26 77 5 c42 3 87 8 101 12 20 5 22 4 10 -4 -12 -9 -7
-11 24 -9 23 2 41 9 44 17 4 11 -2 12 -24 7 -21 -5 -25 -4 -14 3 23 16 8 21
-35 11 -22 -5 -42 -6 -45 -2 -3 4 -33 8 -66 10 -59 2 -62 1 -67 -24z m108 -4
c-11 -5 -31 -8 -45 -8 l-25 0 25 8 c14 4 34 8 45 8 l20 1 -20 -9z"/>
<path d="M795 20 c-3 -6 1 -7 9 -4 18 7 21 14 7 14 -6 0 -13 -4 -16 -10z"/>
<path d="M730 10 c-20 -6 -21 -8 -5 -8 11 0 29 3 40 8 25 11 -1 11 -35 0z"/>
</g>
</svg>
