<?xml version="1.0" standalone="no"?>
<!DOCTYPE svg PUBLIC "-//W3C//DTD SVG 20010904//EN"
 "http://www.w3.org/TR/2001/REC-SVG-20010904/DTD/svg10.dtd">
<svg version="1.0" xmlns="http://www.w3.org/2000/svg"
 width="512.000000pt" height="512.000000pt" viewBox="0 0 512.000000 512.000000"
 preserveAspectRatio="xMidYMid meet">

<g transform="translate(0.000000,512.000000) scale(0.100000,-0.100000)"
fill="#000000" stroke="none">
<path d="M923 3665 c-137 -42 -328 -214 -453 -405 -181 -279 -282 -680 -251
-998 16 -158 42 -257 102 -380 40 -82 64 -117 117 -170 120 -121 241 -166 445
-164 166 2 278 33 380 104 36 26 46 21 66 -31 9 -24 27 -52 42 -63 34 -26 164
-38 293 -27 55 4 220 8 365 9 279 0 522 20 573 46 15 8 41 28 58 44 l30 29 42
-24 c24 -13 83 -32 132 -41 82 -16 121 -17 465 -7 207 6 399 8 426 6 44 -5 57
-12 106 -58 86 -83 181 -98 274 -46 l51 29 57 -36 c52 -32 64 -35 135 -36 95
-1 125 15 154 82 19 42 20 53 10 119 -7 40 -23 95 -36 122 -23 44 -107 131
-127 131 -21 0 -7 18 19 24 56 14 209 96 264 143 32 26 80 76 107 110 52 66
125 191 135 234 8 38 -20 212 -46 272 -12 28 -34 71 -50 94 -15 23 -28 48 -28
56 0 8 20 60 45 116 55 124 66 170 53 217 -14 52 -41 60 -128 39 -75 -18 -120
-39 -207 -95 l-53 -33 -87 41 c-117 53 -281 110 -371 128 -41 8 -132 14 -204
14 l-130 0 -116 86 c-129 96 -157 103 -196 51 -19 -26 -21 -42 -21 -182 0
-150 0 -153 -25 -173 l-24 -20 -95 100 c-143 151 -264 237 -461 332 -136 65
-257 107 -400 137 -127 27 -397 33 -520 10 -298 -54 -547 -213 -713 -456 -84
-123 -155 -343 -178 -551 -25 -233 35 -492 148 -642 24 -31 24 -34 8 -52 -24
-26 -98 -50 -176 -57 -52 -4 -82 -1 -137 16 -60 18 -77 29 -116 72 -84 94
-122 212 -132 416 -6 109 -4 129 25 253 49 212 94 293 291 530 148 177 185
228 221 303 50 106 32 200 -46 233 -41 17 -57 17 -112 -1z m2609 -433 l41 -39
-35 -21 c-20 -12 -40 -22 -45 -22 -9 0 -23 66 -23 106 0 23 19 16 62 -24z
m1238 -144 c0 -16 -44 -108 -61 -130 -13 -15 -18 -14 -62 17 l-48 33 33 25
c31 24 114 66 131 67 4 0 7 -6 7 -12z m-739 -721 c-13 -13 -26 -3 -16 12 3 6
11 8 17 5 6 -4 6 -10 -1 -17z"/>
</g>
</svg>
